<svg version="1.1" xmlns="http://www.w3.org/2000/svg" viewBox="0 0 1125 452" width="1125" height="452">
  <!-- svg-source:excalidraw -->
  
  <defs>
    <style class="style-fonts">
      @font-face {
        font-family: "Virgil";
        src: url("https://excalidraw.com/Virgil.woff2");
      }
      @font-face {
        font-family: "Cascadia";
        src: url("https://excalidraw.com/Cascadia.woff2");
      }
    </style>
    
  </defs>
  <rect x="0" y="0" width="1125" height="452" fill="#ffffff"></rect><g stroke-linecap="round" transform="translate(735 10) rotate(0 81.5 57)"><path d="M28.5 0 M28.5 0 C64.84 -2.03, 99.38 -0.64, 134.5 0 M28.5 0 C62.79 -1.8, 96.61 -1.78, 134.5 0 M134.5 0 C152.78 0.13, 162.83 8.54, 163 28.5 M134.5 0 C153.19 -2.22, 161.64 8.61, 163 28.5 M163 28.5 C163.01 48.26, 160.63 63.67, 163 85.5 M163 28.5 C163.31 43.02, 163.46 56.08, 163 85.5 M163 85.5 C163.76 104.93, 153.03 113.38, 134.5 114 M163 85.5 C161.15 104.88, 153.14 113.15, 134.5 114 M134.5 114 C101.17 113.21, 68.14 114.71, 28.5 114 M134.5 114 C108.77 115.38, 83.41 114.41, 28.5 114 M28.5 114 C8.13 113.25, 1.91 104.66, 0 85.5 M28.5 114 C8.17 115.85, -0.78 105.1, 0 85.5 M0 85.5 C0.57 70.56, -0.4 57.2, 0 28.5 M0 85.5 C0.47 64.19, -0.5 43.83, 0 28.5 M0 28.5 C1.44 10.26, 9.28 1.77, 28.5 0 M0 28.5 C1.39 8.93, 9.66 -1.31, 28.5 0" stroke="#1e1e1e" stroke-width="1" fill="none"></path></g><g transform="translate(747 60) rotate(0 60.44166564941406 12.5)"><text x="0" y="0" font-family="Virgil, Segoe UI Emoji" font-size="20px" fill="#1e1e1e" text-anchor="start" style="white-space: pre;" direction="ltr" dominant-baseline="text-before-edge">Allergic food</text></g><g stroke-linecap="round" transform="translate(330 17) rotate(0 57 45)"><path d="M70.01 1.61 C79.03 2.5, 89.74 7.52, 96.67 12.53 C103.6 17.54, 108.82 24.6, 111.57 31.69 C114.33 38.78, 115.4 47.61, 113.2 55.08 C111 62.54, 104.93 71.05, 98.39 76.5 C91.85 81.95, 82.82 85.74, 73.94 87.78 C65.05 89.82, 54.2 90.27, 45.09 88.74 C35.97 87.2, 26.2 83.62, 19.26 78.57 C12.31 73.51, 6.34 65.66, 3.42 58.42 C0.49 51.17, -0.36 42.47, 1.71 35.1 C3.78 27.72, 9.38 19.56, 15.83 14.18 C22.29 8.8, 30.91 4.94, 40.43 2.82 C49.95 0.7, 66.97 1.34, 72.95 1.47 C78.94 1.6, 76.62 2.88, 76.33 3.58 M41.16 0.43 C49.89 -2.33, 63.41 -1.05, 72.51 1.22 C81.61 3.48, 89.01 8.65, 95.77 14 C102.52 19.36, 110.25 26.11, 113.04 33.35 C115.83 40.58, 115.14 50.19, 112.49 57.42 C109.84 64.64, 103.62 71.79, 97.17 76.7 C90.72 81.61, 82.74 84.74, 73.78 86.9 C64.83 89.06, 52.64 91.2, 43.42 89.66 C34.2 88.12, 25.16 82.95, 18.47 77.65 C11.78 72.35, 6.02 64.97, 3.27 57.87 C0.52 50.77, -0.03 42.62, 1.97 35.05 C3.97 27.49, 8.75 18.06, 15.26 12.48 C21.77 6.9, 36.74 3.19, 41.04 1.59 C45.33 -0.01, 40.93 2.02, 41.03 2.88" stroke="#1e1e1e" stroke-width="1" fill="none"></path></g><g transform="translate(367 55) rotate(0 22.34166717529297 12.5)"><text x="0" y="0" font-family="Virgil, Segoe UI Emoji" font-size="20px" fill="#1e1e1e" text-anchor="start" style="white-space: pre;" direction="ltr" dominant-baseline="text-before-edge">User</text></g><g stroke-linecap="round"><g transform="translate(452.94528137077526 64.96708488844129) rotate(0 135.23843003371755 -0.4374981092268655)"><path d="M1.09 -0.89 C45.98 -0.96, 225.55 -0.28, 270.27 -0.35 M0.2 1.25 C44.88 0.83, 224.76 -1.9, 269.44 -2.13" stroke="#1e1e1e" stroke-width="1" fill="none"></path></g><g transform="translate(452.94528137077526 64.96708488844129) rotate(0 135.23843003371755 -0.4374981092268655)"><path d="M239.87 8.81 C253.02 3.14, 262 1.39, 267.49 -2.51 M240.38 7.82 C247.11 5.44, 253.56 3.92, 269.76 -1.71" stroke="#1e1e1e" stroke-width="1" fill="none"></path></g><g transform="translate(452.94528137077526 64.96708488844129) rotate(0 135.23843003371755 -0.4374981092268655)"><path d="M239.65 -11.71 C252.89 -9.67, 261.95 -3.7, 267.49 -2.51 M240.16 -12.7 C246.81 -10.43, 253.31 -7.3, 269.76 -1.71" stroke="#1e1e1e" stroke-width="1" fill="none"></path></g></g><mask></mask><g transform="translate(471 13) rotate(0 47.80833435058594 12.5)"><text x="0" y="0" font-family="Virgil, Segoe UI Emoji" font-size="20px" fill="#1e1e1e" text-anchor="start" style="white-space: pre;" direction="ltr" dominant-baseline="text-before-edge">know more</text></g><g stroke-linecap="round" transform="translate(903 220) rotate(0 106 73)"><path d="M7.86 8.16 C7.86 8.16, 7.86 8.16, 7.86 8.16 M7.86 8.16 C7.86 8.16, 7.86 8.16, 7.86 8.16 M3.66 19.09 C6.25 17.06, 12.11 10.44, 18.1 2.48 M3.66 19.09 C7.18 15.16, 11.58 11.37, 18.1 2.48 M2.75 26.24 C8.7 19.52, 12.71 14.27, 24.4 1.33 M2.75 26.24 C8.06 20.47, 12.1 13.58, 24.4 1.33 M2.48 32.64 C8.3 27.21, 16.51 19.16, 30.7 0.18 M2.48 32.64 C11.99 22.32, 20.38 13.04, 30.7 0.18 M2.88 38.28 C8.63 28.19, 17.03 20.55, 34.37 2.05 M2.88 38.28 C14.97 24.81, 25.06 13.1, 34.37 2.05 M2.62 44.68 C9.26 37.44, 17.83 26.92, 39.36 2.41 M2.62 44.68 C9.67 34.68, 19.16 25.85, 39.36 2.41 M2.36 51.07 C19.49 34.29, 34.56 15.62, 45 2.02 M2.36 51.07 C16.28 34.83, 30.2 18.05, 45 2.02 M2.75 56.72 C16.35 40.71, 27.79 29.33, 49.99 2.38 M2.75 56.72 C12.56 44.4, 23.36 33.55, 49.99 2.38 M2.49 63.11 C13.93 48.96, 24.97 38.58, 55.63 1.98 M2.49 63.11 C24.14 39.38, 44.16 13.91, 55.63 1.98 M2.23 69.51 C23.42 45.14, 47.72 18.92, 60.62 2.34 M2.23 69.51 C16.4 53.8, 31.13 36.1, 60.62 2.34 M2.62 75.16 C26.8 49.28, 51.62 21.5, 66.26 1.95 M2.62 75.16 C18.95 56.52, 34.67 39.69, 66.26 1.95 M2.36 81.55 C31.66 52.7, 56.38 17.47, 71.25 2.31 M2.36 81.55 C16.13 64.6, 31.05 48.63, 71.25 2.31 M2.1 87.95 C27.44 59.3, 54.68 29.81, 76.89 1.91 M2.1 87.95 C28.44 59.59, 52.87 29.33, 76.89 1.91 M2.49 93.59 C20.63 74.39, 39 51.67, 81.88 2.27 M2.49 93.59 C27.22 66.04, 49.55 37.27, 81.88 2.27 M2.23 99.99 C25.96 72.44, 49.92 46.26, 87.52 1.88 M2.23 99.99 C22.5 76.4, 43.93 51.73, 87.52 1.88 M1.97 106.39 C25.74 73.67, 52.17 43.2, 92.51 2.24 M1.97 106.39 C25.61 80.32, 49.58 52.16, 92.51 2.24 M0.4 114.3 C20.14 90.8, 40.75 66.83, 98.15 1.85 M0.4 114.3 C24.23 84.62, 48.59 57.48, 98.15 1.85 M1.45 119.19 C26.98 92.01, 52.56 60.82, 103.14 2.21 M1.45 119.19 C38.46 77.99, 72.59 36.29, 103.14 2.21 M1.84 124.83 C28.93 95.11, 55.53 65.27, 108.78 1.81 M1.84 124.83 C41.88 76.46, 83.99 29.27, 108.78 1.81 M3.55 128.96 C32.01 99.63, 59.11 69.54, 113.77 2.17 M3.55 128.96 C41.59 85.36, 79.85 41.7, 113.77 2.17 M5.26 133.1 C48.3 82.69, 90.5 30.41, 119.41 1.78 M5.26 133.1 C51.09 80.99, 96.38 29.46, 119.41 1.78 M7.62 136.47 C43.41 94.64, 77.18 52.13, 124.4 2.14 M7.62 136.47 C49.62 88.48, 91.11 41.76, 124.4 2.14 M9.98 139.85 C40.2 104.16, 75.25 63.09, 130.04 1.74 M9.98 139.85 C50.76 91.64, 91.11 46.14, 130.04 1.74 M13.66 141.72 C55.17 95.27, 96.06 49.21, 135.03 2.1 M13.66 141.72 C41.45 109.64, 65.9 81.11, 135.03 2.1 M17.33 143.59 C50.3 107.37, 79.8 69.16, 140.67 1.71 M17.33 143.59 C43.76 109.9, 72.06 78.07, 140.67 1.71 M20.35 146.22 C54.05 104.78, 93.62 61.46, 145.66 2.07 M20.35 146.22 C55.07 106.36, 90.38 66.56, 145.66 2.07 M25.34 146.58 C66.82 98.04, 109.93 48.37, 150.65 2.43 M25.34 146.58 C71.97 91.05, 120.24 37.25, 150.65 2.43 M29.67 147.69 C59.95 113.2, 93.57 74.4, 156.29 2.03 M29.67 147.69 C61.42 113.55, 91.22 79.12, 156.29 2.03 M34.66 148.05 C62.11 118.9, 85.52 85.82, 161.28 2.39 M34.66 148.05 C62.49 114.81, 90.69 81.86, 161.28 2.39 M39.64 148.41 C80.22 103.66, 118.35 61.55, 166.92 2 M39.64 148.41 C78.06 104.32, 115.19 60.74, 166.92 2 M45.29 148.02 C71.83 115.43, 102.15 80.26, 171.91 2.36 M45.29 148.02 C88.33 96.01, 132.55 45.77, 171.91 2.36 M50.27 148.38 C83.54 108.74, 117.79 70.23, 177.55 1.96 M50.27 148.38 C98.82 90.1, 148.3 31.89, 177.55 1.96 M55.92 147.98 C84.42 114.54, 114.61 79.32, 182.54 2.32 M55.92 147.98 C85.94 112.83, 117.57 77.46, 182.54 2.32 M60.9 148.34 C84.51 119.26, 110.56 89.76, 187.52 2.68 M60.9 148.34 C106.98 94.43, 154.34 40.35, 187.52 2.68 M66.55 147.95 C108.22 100.22, 147.58 52.61, 191.85 3.8 M66.55 147.95 C108.05 101.46, 149.91 53.71, 191.85 3.8 M71.53 148.31 C108.41 107.05, 143.39 67.73, 196.84 4.16 M71.53 148.31 C99.3 113.43, 128.84 81.74, 196.84 4.16 M77.18 147.91 C112.79 105.18, 150.32 61.23, 199.86 6.78 M77.18 147.91 C120.84 96.24, 166.08 47.37, 199.86 6.78 M82.16 148.27 C119.6 105.29, 156.54 64.85, 204.19 7.9 M82.16 148.27 C114.55 111.69, 145.64 73.81, 204.19 7.9 M87.81 147.88 C113.85 118.32, 141.36 86.01, 205.9 12.03 M87.81 147.88 C133.84 95.21, 180.77 40.06, 205.9 12.03 M92.79 148.24 C133.54 100.86, 179.54 52.22, 208.26 15.41 M92.79 148.24 C130.41 106.84, 167.12 62.76, 208.26 15.41 M98.44 147.85 C122.32 120.14, 142.97 93.64, 210.62 18.79 M98.44 147.85 C124.73 120.15, 151.35 89.34, 210.62 18.79 M103.42 148.21 C130.64 116.19, 158.63 82.2, 211.67 23.68 M103.42 148.21 C141.64 105.52, 178.35 61.61, 211.67 23.68 M108.41 148.57 C136.48 115.64, 167.62 79.02, 212.07 29.32 M108.41 148.57 C147.11 101.76, 188.29 56.24, 212.07 29.32 M114.05 148.17 C137.3 120.83, 159.78 96.41, 213.77 33.45 M114.05 148.17 C136.59 122.2, 158.95 95.25, 213.77 33.45 M119.04 148.53 C149.22 112.9, 182.18 74.15, 213.51 39.85 M119.04 148.53 C149.81 113.49, 180.85 76.86, 213.51 39.85 M124.68 148.14 C158.77 111.12, 192.21 69.88, 213.91 45.5 M124.68 148.14 C158.25 109.62, 193.09 71.12, 213.91 45.5 M129.67 148.5 C155.42 119.49, 181.43 87.13, 213.65 51.89 M129.67 148.5 C161.71 110.13, 196.08 72.13, 213.65 51.89 M135.31 148.1 C161.79 121.78, 183.98 89.59, 213.38 58.29 M135.31 148.1 C160.5 118.57, 186.66 88.73, 213.38 58.29 M140.3 148.46 C159.9 125.83, 178.06 103.73, 213.78 63.93 M140.3 148.46 C163.25 123.33, 184.79 97.33, 213.78 63.93 M145.94 148.07 C169.39 122.05, 190.51 96.56, 213.52 70.33 M145.94 148.07 C168.31 121.84, 189.65 98.17, 213.52 70.33 M150.93 148.43 C171 129.13, 186.95 105.48, 213.26 76.73 M150.93 148.43 C167.83 128.8, 185.88 109.82, 213.26 76.73 M156.57 148.03 C174.66 127.44, 194.44 101.55, 213.65 82.37 M156.57 148.03 C177.55 123.09, 199.58 99.93, 213.65 82.37 M161.56 148.39 C180.83 123.92, 200.05 103.49, 213.39 88.77 M161.56 148.39 C174 134.28, 186.22 119.66, 213.39 88.77 M167.2 148 C187.13 128.18, 204.46 107.51, 213.13 95.17 M167.2 148 C184.74 128.96, 199.83 110.61, 213.13 95.17 M172.19 148.36 C187.76 128.94, 206.53 110.89, 213.52 100.81 M172.19 148.36 C184.72 135.03, 196.04 122.43, 213.52 100.81 M177.83 147.96 C191.45 131.6, 203.76 115.91, 213.26 107.21 M177.83 147.96 C190.53 134.75, 201.02 121.06, 213.26 107.21 M182.82 148.32 C190.02 137.02, 199.59 129.52, 213 113.61 M182.82 148.32 C194.95 135.4, 206.2 121.01, 213 113.61 M189.12 147.17 C197.3 139.15, 201.79 132.28, 213.39 119.25 M189.12 147.17 C194.43 140.32, 200.43 133.5, 213.39 119.25 M196.08 145.27 C198.73 141.44, 205.89 135.78, 214.45 124.14 M196.08 145.27 C202.18 139.18, 207.15 131.37, 214.45 124.14" stroke="#b2f2bb" stroke-width="0.5" fill="none"></path><path d="M32 0 M32 0 C81.04 -1.54, 127.91 -1.31, 180 0 M32 0 C86.64 0.66, 143.14 1.02, 180 0 M180 0 C201.81 1.13, 211.8 9.05, 212 32 M180 0 C200.99 1.01, 212.93 9.29, 212 32 M212 32 C211.53 61.92, 210.96 91.35, 212 114 M212 32 C211.11 57.74, 210.78 84.54, 212 114 M212 114 C213.85 135.04, 200.89 147.62, 180 146 M212 114 C213.72 133.87, 202.32 147.34, 180 146 M180 146 C138.3 144.38, 101.84 147.96, 32 146 M180 146 C149.23 146.87, 116.89 146.07, 32 146 M32 146 C11.58 147.08, 1.59 135.61, 0 114 M32 146 C11.84 145.13, 2.2 134.32, 0 114 M0 114 C-0.95 95.55, -1.54 77.44, 0 32 M0 114 C0.66 89.1, -0.03 64.82, 0 32 M0 32 C1.65 11.68, 10.85 0.3, 32 0 M0 32 C2.1 10.23, 10.47 -2.24, 32 0" stroke="#1e1e1e" stroke-width="1" fill="none"></path></g><g transform="translate(921 253) rotate(0 89.54166412353516 37.5)"><text x="0" y="0" font-family="Virgil, Segoe UI Emoji" font-size="20px" fill="#1e1e1e" text-anchor="start" style="white-space: pre;" direction="ltr" dominant-baseline="text-before-edge">Allergic ingredients</text><text x="0" y="25" font-family="Virgil, Segoe UI Emoji" font-size="20px" fill="#1e1e1e" text-anchor="start" style="white-space: pre;" direction="ltr" dominant-baseline="text-before-edge">or </text><text x="0" y="50" font-family="Virgil, Segoe UI Emoji" font-size="20px" fill="#1e1e1e" text-anchor="start" style="white-space: pre;" direction="ltr" dominant-baseline="text-before-edge">Allergen</text></g><g stroke-linecap="round" transform="translate(133 344) rotate(0 58.5 49)"><path d="M44.62 2.39 C53.5 -0.3, 65.51 -1.17, 74.98 1.01 C84.45 3.18, 94.66 9.4, 101.44 15.44 C108.21 21.48, 113.45 29.48, 115.64 37.24 C117.83 44.99, 117.5 54.12, 114.58 61.97 C111.65 69.81, 105.3 78.41, 98.11 84.32 C90.92 90.23, 80.71 95.5, 71.44 97.43 C62.16 99.37, 51.63 98.45, 42.45 95.93 C33.26 93.41, 23.08 88.24, 16.32 82.32 C9.55 76.4, 4.22 68.15, 1.85 60.43 C-0.52 52.7, -0.57 43.63, 2.1 35.97 C4.76 28.3, 10.15 20.42, 17.83 14.44 C25.51 8.47, 42.17 2.41, 48.17 0.11 C54.17 -2.18, 53.69 -0.15, 53.86 0.69 M67.18 -0.74 C76.49 -0.82, 85.98 3.74, 93.31 8.89 C100.64 14.03, 107.34 22.6, 111.17 30.13 C115.01 37.66, 117.21 46.14, 116.34 54.04 C115.46 61.94, 111.79 70.88, 105.93 77.52 C100.06 84.16, 90.19 90.43, 81.16 93.89 C72.14 97.35, 61.71 99.51, 51.77 98.29 C41.83 97.07, 29.6 91.58, 21.51 86.58 C13.43 81.58, 6.64 75.6, 3.28 68.29 C-0.09 60.97, -0.17 50.89, 1.31 42.68 C2.79 34.48, 6.43 25.57, 12.16 19.07 C17.88 12.58, 26.68 7.08, 35.64 3.74 C44.61 0.4, 60.64 -0.39, 65.93 -0.98 C71.23 -1.58, 67.31 -0.95, 67.41 0.16" stroke="#1e1e1e" stroke-width="1" fill="none"></path></g><g transform="translate(173.17591933147077 380.35176772185923) rotate(0 18.45833396911621 12.5)"><text x="18.45833396911621" y="0" font-family="Virgil, Segoe UI Emoji" font-size="20px" fill="#1e1e1e" text-anchor="middle" style="white-space: pre;" direction="ltr" dominant-baseline="text-before-edge">Bot</text></g><g stroke-linecap="round"><g transform="translate(328 75) rotate(0 -82.20233073731264 124.71560240409391)"><path d="M-0.91 0.31 C-15.18 18.73, -57.53 68.67, -84.8 110.09 C-112.08 151.51, -151.2 225.5, -164.56 248.85 M0.81 -0.57 C-13.58 17.58, -57.45 66.78, -85.13 108.54 C-112.8 150.3, -151.93 226.73, -165.21 250.01" stroke="#1e1e1e" stroke-width="1" fill="none"></path></g><g transform="translate(328 75) rotate(0 -82.20233073731264 124.71560240409391)"><path d="M-160.23 222.33 C-160.67 231.48, -164.63 241.61, -163.48 250.61 M-160.14 220.26 C-161.97 229.67, -162.53 237.75, -166.13 250.11" stroke="#1e1e1e" stroke-width="1" fill="none"></path></g><g transform="translate(328 75) rotate(0 -82.20233073731264 124.71560240409391)"><path d="M-142.21 232.15 C-149.19 237.57, -159.73 244.12, -163.48 250.61 M-142.11 230.07 C-149.06 236.54, -154.77 241.82, -166.13 250.11" stroke="#1e1e1e" stroke-width="1" fill="none"></path></g></g><mask></mask><g transform="translate(10 124) rotate(0 91.78333282470703 25)"><text x="0" y="0" font-family="Virgil, Segoe UI Emoji" font-size="20px" fill="#1e1e1e" text-anchor="start" style="white-space: pre;" direction="ltr" dominant-baseline="text-before-edge">Step 1 </text><text x="0" y="25" font-family="Virgil, Segoe UI Emoji" font-size="20px" fill="#1e1e1e" text-anchor="start" style="white-space: pre;" direction="ltr" dominant-baseline="text-before-edge">Hey I can't eat ...</text></g><g stroke-linecap="round"><g transform="translate(248.58847603073582 362.15898208663924) rotate(0 112.16467069963235 10.903133920830186)"><path d="M0.06 0.8 C35.14 7.14, 174.37 41.09, 209.6 38.45 C244.83 35.81, 211.25 -5.9, 211.41 -15.04 M-1.37 0.18 C33.74 6.13, 173.94 39.48, 209.27 36.65 C244.61 33.82, 210.43 -8.12, 210.62 -16.79" stroke="#1e1e1e" stroke-width="1" fill="none"></path></g><g transform="translate(248.58847603073582 362.15898208663924) rotate(0 112.16467069963235 10.903133920830186)"><path d="M230.41 4.96 C225.9 -1.53, 222.63 -7.29, 210.23 -18.26 M228.26 3.21 C224.05 -2.66, 217.17 -9.17, 209.94 -17.43" stroke="#1e1e1e" stroke-width="1" fill="none"></path></g><g transform="translate(248.58847603073582 362.15898208663924) rotate(0 112.16467069963235 10.903133920830186)"><path d="M213.38 12.19 C212.65 4.08, 213.18 -3.3, 210.23 -18.26 M211.24 10.44 C212.66 2.31, 211.37 -6.58, 209.94 -17.43" stroke="#1e1e1e" stroke-width="1" fill="none"></path></g></g><mask></mask><g transform="translate(351.21666717529297 209.5) rotate(0 125.48332977294922 62.5)"><text x="0" y="0" font-family="Virgil, Segoe UI Emoji" font-size="20px" fill="#1e1e1e" text-anchor="start" style="white-space: pre;" direction="ltr" dominant-baseline="text-before-edge">Step 2</text><text x="0" y="25" font-family="Virgil, Segoe UI Emoji" font-size="20px" fill="#1e1e1e" text-anchor="start" style="white-space: pre;" direction="ltr" dominant-baseline="text-before-edge">What are your symptoms?</text><text x="0" y="50" font-family="Virgil, Segoe UI Emoji" font-size="20px" fill="#1e1e1e" text-anchor="start" style="white-space: pre;" direction="ltr" dominant-baseline="text-before-edge">Do your parents have it?</text><text x="0" y="75" font-family="Virgil, Segoe UI Emoji" font-size="20px" fill="#1e1e1e" text-anchor="start" style="white-space: pre;" direction="ltr" dominant-baseline="text-before-edge">...</text><text x="0" y="100" font-family="Virgil, Segoe UI Emoji" font-size="20px" fill="#1e1e1e" text-anchor="start" style="white-space: pre;" direction="ltr" dominant-baseline="text-before-edge"></text></g><g stroke-linecap="round"><g transform="translate(737.7435004244786 184.98383540432155) rotate(0 72.73127066117036 48.34401041988562)"><path d="M0.37 1.19 C24.95 17.25, 121.99 80.39, 146.36 95.92 M-0.9 0.77 C23.63 16.5, 120.98 78.3, 145.47 94.03" stroke="#1e1e1e" stroke-width="1" fill="none"></path></g><g transform="translate(737.7435004244786 184.98383540432155) rotate(0 72.73127066117036 48.34401041988562)"><path d="M118.17 87.7 C122.94 89.39, 126.41 91.78, 145.01 95.99 M115.82 86.89 C126.71 88.99, 139.08 91.22, 146.1 93.6" stroke="#1e1e1e" stroke-width="1" fill="none"></path></g><g transform="translate(737.7435004244786 184.98383540432155) rotate(0 72.73127066117036 48.34401041988562)"><path d="M129.21 70.4 C131.64 75.68, 132.85 81.63, 145.01 95.99 M126.86 69.6 C133.41 78.31, 141.61 87.07, 146.1 93.6" stroke="#1e1e1e" stroke-width="1" fill="none"></path></g></g><mask></mask><g stroke-linecap="round"><g transform="translate(967.7757807072661 201) rotate(0 -32.18269295250775 -32.00344866157266)"><path d="M-0.98 0.8 C-11.55 -9.8, -53.75 -52.37, -64.49 -63.06 M0.71 0.17 C-9.86 -10.81, -53.91 -53.86, -65.08 -64.8" stroke="#1e1e1e" stroke-width="1" fill="none"></path></g><g transform="translate(967.7757807072661 201) rotate(0 -32.18269295250775 -32.00344866157266)"><path d="M-36.43 -51.25 C-42.37 -55.62, -48.6 -58.46, -64.02 -65.12 M-37.35 -52.59 C-44.43 -56.59, -52.9 -59.84, -65.1 -63.99" stroke="#1e1e1e" stroke-width="1" fill="none"></path></g><g transform="translate(967.7757807072661 201) rotate(0 -32.18269295250775 -32.00344866157266)"><path d="M-50.79 -36.59 C-53.76 -43.93, -56.98 -49.86, -64.02 -65.12 M-51.71 -37.93 C-54.83 -45.82, -59.47 -52.98, -65.1 -63.99" stroke="#1e1e1e" stroke-width="1" fill="none"></path></g></g><mask></mask><g stroke-linecap="round"><g transform="translate(410.42007597907656 115.15754438635281) rotate(0 48.49270562558155 22.644070012321038)"><path d="M-1.03 0.79 C15.36 8.16, 81.31 37.83, 98.02 45.12 M0.63 0.16 C16.87 7.07, 80.53 35.56, 96.92 43.15" stroke="#1e1e1e" stroke-width="1" fill="none"></path></g><g transform="translate(410.42007597907656 115.15754438635281) rotate(0 48.49270562558155 22.644070012321038)"><path d="M68.33 40.37 C75.66 43.28, 82.88 43.95, 95.56 41.97 M67.5 41.36 C74.29 41.61, 81.5 41.04, 97.28 43.72" stroke="#1e1e1e" stroke-width="1" fill="none"></path></g><g transform="translate(410.42007597907656 115.15754438635281) rotate(0 48.49270562558155 22.644070012321038)"><path d="M76.81 21.69 C81.97 29.62, 86.87 35.4, 95.56 41.97 M75.99 22.67 C80.94 27.29, 86.21 31.02, 97.28 43.72" stroke="#1e1e1e" stroke-width="1" fill="none"></path></g></g><mask></mask><g transform="translate(522 158) rotate(0 104.0999984741211 12.5)"><text x="0" y="0" font-family="Virgil, Segoe UI Emoji" font-size="20px" fill="#1e1e1e" text-anchor="start" style="white-space: pre;" direction="ltr" dominant-baseline="text-before-edge">Answer the questions</text></g></svg>